<svg width="142" height="144" viewBox="0 0 142 144" fill="none" xmlns="http://www.w3.org/2000/svg">
<path d="M29.9568 50.3998L29.9675 50.3901L29.9777 50.3798C33.4826 46.8433 36.808 42.9949 40.0822 39.2058C41.6994 37.3342 43.3042 35.4771 44.9119 33.6791C49.7932 28.2204 54.7207 23.2831 60.2072 19.9698C65.6787 16.6656 71.7024 14.9786 78.7982 16.0183C85.9073 17.0599 94.141 20.8457 104.006 28.5848C124.687 46.5124 124.52 77.5002 109.209 97.8401C94.3706 116.564 65.7385 128.49 41.6524 116.167C33.5337 110.76 26.7496 105.728 21.6356 100.775C16.515 95.815 13.1015 90.9648 11.6796 85.9309C8.85301 75.9246 13.8349 64.8896 29.9568 50.3998Z" stroke="#3C5D79"/>
<path d="M67.3942 28.6446L67.4078 28.6494L67.4217 28.6533C72.2086 30.0236 77.1824 31.0865 82.0795 32.1329C84.4985 32.6499 86.8987 33.1628 89.2485 33.7068C96.3827 35.3584 103.082 37.3015 108.627 40.5163C114.156 43.7222 118.534 48.1906 121.038 54.9109C123.546 61.6438 124.19 70.6833 122.154 83.0556C116.393 109.812 89.149 124.579 63.9511 120.947C40.3965 116.951 16.1633 97.5922 15.3731 70.5485C16.2059 60.8294 17.3515 52.4611 19.2322 45.5944C21.1153 38.7189 23.7241 33.3924 27.4523 29.7233C34.8633 22.4299 46.9339 21.4861 67.3942 28.6446Z" stroke="#3C5D79"/>
<path d="M27.9485 91.672L27.9463 91.6577L27.9434 91.6436C26.9285 86.769 25.5545 81.872 24.2017 77.0504C23.5335 74.6688 22.8705 72.3056 22.2584 69.9727C20.4001 62.8895 19.0023 56.0556 19.2672 49.6517C19.5314 43.2654 21.4491 37.311 26.2321 31.9675C31.0242 26.6139 38.7253 21.837 50.6237 17.8812C76.9874 10.5291 102.736 27.7706 111.248 51.7638C118.674 74.4716 112.817 104.93 89.2477 118.215C80.2577 122.001 72.3177 124.881 65.3646 126.412C58.4027 127.945 52.4741 128.115 47.4915 126.523C37.5871 123.358 31.1343 113.113 27.9485 91.672Z" stroke="#3C5D79"/>
<path d="M36.3414 70.16H33.8214L33.1814 72H31.8114L34.4314 65.11H35.7314L38.3614 72H36.9814L36.3414 70.16ZM36.0014 69.2L35.0814 66.54L34.1514 69.2H36.0014ZM43.8785 71.03V72H39.4885V65.2H40.8485V71.03H43.8785ZM45.0842 65.2H46.4442V72H45.0842V65.2ZM51.5634 72.13C50.7767 72.13 50.11 71.97 49.5634 71.65C49.0234 71.3233 48.6167 70.8933 48.3434 70.36C48.0767 69.82 47.9434 69.23 47.9434 68.59C47.9434 67.9567 48.0834 67.3733 48.3634 66.84C48.65 66.3067 49.0734 65.88 49.6334 65.56C50.1934 65.24 50.87 65.08 51.6634 65.08C52.0834 65.08 52.4767 65.1367 52.8434 65.25C53.2167 65.3633 53.5367 65.52 53.8034 65.72L53.4434 66.65C53.2167 66.4833 52.95 66.3467 52.6434 66.24C52.3434 66.1333 52.0167 66.08 51.6634 66.08C51.17 66.08 50.7434 66.19 50.3834 66.41C50.03 66.63 49.76 66.9333 49.5734 67.32C49.3934 67.7 49.3034 68.1267 49.3034 68.6C49.3034 69.0867 49.39 69.5233 49.5634 69.91C49.7367 70.29 49.9934 70.59 50.3334 70.81C50.6734 71.03 51.0834 71.14 51.5634 71.14C51.95 71.14 52.31 71.0767 52.6434 70.95C52.9767 70.8167 53.27 70.6533 53.5234 70.46L53.8634 71.37C53.5767 71.59 53.2334 71.7733 52.8334 71.92C52.4334 72.06 52.01 72.13 51.5634 72.13ZM59.7281 71.03V72H55.3381V65.2H59.5281V66.17H56.6981V67.92H59.1281V68.89H56.6981V71.03H59.7281ZM66.2359 69.25H65.1259V72H63.7659V65.2H66.2659C67.9859 65.2 68.8459 65.8533 68.8459 67.16C68.8459 68.12 68.4259 68.7367 67.5859 69.01L69.6359 72H68.0659L66.2359 69.25ZM65.1259 68.28H66.2659C66.6859 68.28 66.9925 68.1933 67.1859 68.02C67.3859 67.8467 67.4859 67.5833 67.4859 67.23C67.4859 66.5233 67.0792 66.17 66.2659 66.17H65.1259V68.28ZM70.885 65.2H72.245V72H70.885V65.2ZM77.8941 68.41C78.3941 68.51 78.7741 68.7133 79.0341 69.02C79.3008 69.3267 79.4341 69.7 79.4341 70.14C79.4341 70.7333 79.2041 71.1933 78.7441 71.52C78.2908 71.84 77.6275 72 76.7541 72H74.2541V65.2H76.7541C77.5341 65.2 78.1241 65.3433 78.5241 65.63C78.9308 65.9167 79.1341 66.34 79.1341 66.9C79.1341 67.26 79.0275 67.5767 78.8141 67.85C78.6008 68.1167 78.2941 68.3033 77.8941 68.41ZM75.6141 66.17V67.93H76.7541C77.0808 67.93 77.3308 67.8567 77.5041 67.71C77.6841 67.5567 77.7741 67.3333 77.7741 67.04C77.7741 66.7333 77.6875 66.5133 77.5141 66.38C77.3408 66.24 77.0875 66.17 76.7541 66.17H75.6141ZM76.7541 71.03C77.1808 71.03 77.5075 70.94 77.7341 70.76C77.9608 70.58 78.0741 70.3133 78.0741 69.96C78.0741 69.2533 77.6341 68.9 76.7541 68.9H75.6141V71.03H76.7541ZM85.2652 71.03V72H80.8752V65.2H85.0652V66.17H82.2352V67.92H84.6652V68.89H82.2352V71.03H85.2652ZM86.803 65.2H88.163V72H86.803V65.2ZM92.6421 69.25H91.5321V72H90.1721V65.2H92.6721C94.3921 65.2 95.2521 65.8533 95.2521 67.16C95.2521 68.12 94.8321 68.7367 93.9921 69.01L96.0421 72H94.4721L92.6421 69.25ZM91.5321 68.28H92.6721C93.0921 68.28 93.3988 68.1933 93.5921 68.02C93.7921 67.8467 93.8921 67.5833 93.8921 67.23C93.8921 66.5233 93.4854 66.17 92.6721 66.17H91.5321V68.28ZM100.291 72.14C99.5446 72.14 98.9079 71.9833 98.3813 71.67C97.8546 71.35 97.4546 70.9233 97.1813 70.39C96.9146 69.85 96.7813 69.2567 96.7813 68.61C96.7813 67.9567 96.9146 67.3633 97.1813 66.83C97.4479 66.2967 97.8446 65.8733 98.3713 65.56C98.9046 65.24 99.5446 65.08 100.291 65.08C101.031 65.08 101.665 65.24 102.191 65.56C102.725 65.8733 103.125 66.2967 103.391 66.83C103.665 67.3633 103.801 67.9533 103.801 68.6C103.801 69.2533 103.665 69.85 103.391 70.39C103.125 70.9233 102.728 71.35 102.201 71.67C101.675 71.9833 101.038 72.14 100.291 72.14ZM100.301 71.14C100.748 71.14 101.131 71.03 101.451 70.81C101.778 70.59 102.025 70.29 102.191 69.91C102.365 69.5233 102.451 69.0867 102.451 68.6C102.451 68.12 102.365 67.69 102.191 67.31C102.025 66.93 101.778 66.63 101.451 66.41C101.131 66.19 100.748 66.08 100.301 66.08C99.8479 66.08 99.4579 66.19 99.1313 66.41C98.8113 66.63 98.5679 66.93 98.4013 67.31C98.2346 67.69 98.1513 68.12 98.1513 68.6C98.1513 69.0867 98.2346 69.5233 98.4013 69.91C98.5679 70.29 98.8113 70.59 99.1313 70.81C99.4579 71.03 99.8479 71.14 100.301 71.14Z" fill="#282828"/>
</svg>
